<?xml version="1.0" encoding="utf-8"?>
<!-- Generator: Adobe Illustrator 16.0.0, SVG Export Plug-In . SVG Version: 6.00 Build 0)  -->
<!DOCTYPE svg PUBLIC "-//W3C//DTD SVG 1.1//EN" "http://www.w3.org/Graphics/SVG/1.1/DTD/svg11.dtd">
<svg version="1.1" xmlns="http://www.w3.org/2000/svg" xmlns:xlink="http://www.w3.org/1999/xlink" x="0px" y="0px" width="128px"
	 height="128px" viewBox="0 0 128 128" enable-background="new 0 0 128 128" xml:space="preserve">
<g id="function" display="none">
	<path display="inline" fill="#00A99D" stroke="#E6E6E6" stroke-width="2" stroke-miterlimit="10" d="M123,111.6
		c0,6.571-5.373,12.4-12,12.4H15c-6.627,0-12-5.829-12-12.4V15.401C3,8.828,8.373,4,15,4h96c6.627,0,12,4.828,12,11.401V111.6z"/>
	<g display="inline">
		<path fill="#F2F2F2" d="M34.632,105.627V21.735h61.04v14.238H61.087V54.87h28.256v14.238H61.087v36.52H34.632z"/>
	</g>
</g>
<g id="class" display="none">
	<path display="inline" fill="#FAA700" stroke="#E6E6E6" stroke-width="2" stroke-miterlimit="10" d="M123,111.6
		c0,6.571-5.373,12.4-12,12.4H15c-6.627,0-12-5.829-12-12.4V15.401C3,8.828,8.373,4,15,4h96c6.627,0,12,4.828,12,11.401V111.6z"/>
	<g display="inline">
		<path fill="#F2F2F2" d="M96.066,103.648c-1.436,0.615-4.301,1.42-8.592,2.416c-4.293,0.996-9.822,1.568-16.59,1.715
			c-10.81,0-19.373-1.803-25.686-5.406c-6.313-3.604-10.782-8.824-13.403-15.666c-2.622-6.84-3.933-15.476-3.933-25.906
			c0.292-6.328,1.171-11.88,2.637-16.655c1.465-4.775,3.735-8.936,6.812-12.48c3.076-3.544,7.148-6.343,12.217-8.394
			c5.068-2.05,11.235-3.223,18.501-3.516c6.797,0,12.377,0.403,16.742,1.208c4.365,0.806,7.354,1.487,8.965,2.043l4.703,18.193
			c-1.641-0.996-4.629-2.256-8.965-3.779c-4.336-1.523-9.566-2.314-15.689-2.373c-7.881,0-13.125,2.322-15.732,6.965
			c-2.607,4.644-3.911,10.906-3.911,18.787c0,4.542,0.19,8.489,0.571,11.843c0.381,3.355,1.208,6.525,2.483,9.514
			c1.273,2.988,3.156,5.369,5.646,7.141c2.491,1.773,5.713,2.719,9.668,2.836c5.479,0,10.107-0.439,13.887-1.318
			s6.752-1.875,8.92-2.988c2.08-1.055,3.121-1.598,3.121-1.627L96.066,103.648z"/>
	</g>
</g>
<g id="namespace" display="none">
	<path display="inline" fill="#33ADDA" stroke="#E6E6E6" stroke-width="2" stroke-miterlimit="10" d="M123,111.6
		c0,6.571-5.373,12.4-12,12.4H15c-6.627,0-12-5.829-12-12.4V15.401C3,8.828,8.373,4,15,4h96c6.627,0,12,4.828,12,11.401V111.6z"/>
	<g display="inline">
		<path fill="#F2F2F2" d="M82.511,70.514v-48.78h19.248v83.891H72.623L46.344,55.044v50.581H26.876V21.734h31.157L82.511,70.514z"/>
	</g>
</g>
<g id="variable" display="none">
	<path display="inline" fill="#9D7D2D" stroke="#E6E6E6" stroke-width="2" stroke-miterlimit="10" d="M123,111.6
		c0,6.571-5.373,12.4-12,12.4H15c-6.627,0-12-5.829-12-12.4V15.401C3,8.828,8.373,4,15,4h96c6.627,0,12,4.828,12,11.401V111.6z"/>
	<g display="inline">
		<path fill="#F2F2F2" d="M62.483,108.701l-37.09-86.967h28.608l12.788,30.41l12.612-30.41h20.127L62.483,108.701z"/>
	</g>
</g>
<g id="spaghetti" display="none">
	<path display="inline" fill="#C3202E" stroke="#E6E6E6" stroke-width="2" stroke-miterlimit="10" d="M123,111.6
		c0,6.571-5.373,12.4-12,12.4H15c-6.627,0-12-5.829-12-12.4V15.401C3,8.828,8.373,4,15,4h96c6.627,0,12,4.828,12,11.401V111.6z"/>
	
		<path display="inline" fill="none" stroke="#FFFFFF" stroke-width="4" stroke-linecap="round" stroke-linejoin="round" stroke-miterlimit="10" d="
		M23.529,76.574c0,0-14.627,3.544-14.627,8.995c0,5.449,16.922,13.768,53.635,13.768c36.712,0,53.635-7.889,53.635-13.768
		c0-5.881-13.628-8.995-13.628-8.995"/>
	
		<path display="inline" fill="none" stroke="#FFFFFF" stroke-width="4" stroke-linecap="round" stroke-linejoin="round" stroke-miterlimit="10" d="
		M113.304,95.513c0,5.341-16.017,12.505-50.767,12.505c-34.75,0-50.768-7.556-50.768-12.505"/>
	<g display="inline">
		<g>
			<path fill="#FFFFFF" d="M99.966,16.43L44.804,30.351c-0.611,0.144-1.138,0.436-1.539,0.814l-0.762,0.143
				c-1.817,0.336-4.113,0.17-5.131-0.375c-1.022-0.543-3.387-0.623-5.29-0.177l-3.33,0.779l-1.696-2.38
				c-0.322-0.448-1.033-0.561-1.595-0.253c-0.564,0.31-0.758,0.922-0.438,1.37l9.923,13.925c1.609,2.251,3.74,6.219,3.779,8.813
				c-1.164-1.679-2.748-2.724-4.359-3.114c-1.937-0.466-3.828,0.035-4.944,1.307c-1.277,1.455-1.288,3.308-0.034,4.72
				c1.327,1.498,4.374,2.727,8.579,1.281c0.213,0.996,0.304,2.122,0.229,3.375c-0.03,0.543,0.465,0.969,1.111,0.95
				c0.096-0.004,0.19-0.015,0.282-0.036c0.516-0.123,0.918-0.521,0.945-0.986c0.101-1.759-0.083-3.312-0.475-4.65
				c0.253-0.291,0.461-0.617,0.617-0.971c1.766-3.978-3.135-11.018-3.699-11.806l-2.209-3.1c1.416-0.588,2.762-1.468,3.291-2.208
				c0.67-0.939,2.757-2.062,4.657-2.507l1.258-0.295c0.575,0.219,1.248,0.283,1.941,0.121l55.605-12.026
				c1.586-0.373,2.399-2.682,2.094-3.99C103.306,17.765,101.553,16.058,99.966,16.43z M37.292,55.372
				c-3.02,1.052-5.116,0.273-5.991-0.716c-0.671-0.752-0.684-1.639-0.044-2.374c0.257-0.291,0.579-0.448,0.905-0.525
				c0.541-0.126,1.094-0.033,1.382,0.036c1.456,0.353,2.926,1.551,3.82,3.551C37.343,55.353,37.315,55.362,37.292,55.372z"/>
			<path fill="#FFFFFF" d="M23.876,44.177l1.595,2.237c0.255,0.356,0.759,0.502,1.239,0.39c0.122-0.028,0.24-0.074,0.355-0.137
				c0.561-0.308,0.758-0.921,0.438-1.37l-9.922-13.923c-0.32-0.448-1.031-0.562-1.595-0.254c-0.559,0.31-0.756,0.922-0.437,1.371
				l0.44,0.618l-3.836,0.898c-0.634,0.148-1.047,0.692-0.925,1.215c0.123,0.525,0.735,0.828,1.368,0.68l4.614-1.081l0.76,1.072
				l-6.433,1.506c-0.634,0.148-1.049,0.694-0.926,1.217c0.123,0.523,0.736,0.828,1.37,0.679l7.213-1.689l1.119,1.571l-7.541,1.767
				c-0.637,0.149-1.051,0.693-0.928,1.218c0.123,0.523,0.735,0.828,1.372,0.679l8.318-1.949l1.122,1.572l-8.65,2.025
				c-0.636,0.149-1.05,0.693-0.926,1.218c0.122,0.523,0.734,0.828,1.37,0.679L23.876,44.177L23.876,44.177z"/>
			<path fill="#FFFFFF" d="M28.63,45.674c0.255,0.356,0.758,0.502,1.238,0.39c0.123-0.028,0.242-0.074,0.354-0.136
				c0.563-0.309,0.759-0.923,0.441-1.371L20.74,30.634c-0.321-0.447-1.032-0.562-1.592-0.253c-0.564,0.31-0.758,0.922-0.44,1.371
				L28.63,45.674z"/>
			<path fill="#FFFFFF" d="M31.785,44.935c0.255,0.356,0.761,0.501,1.239,0.39c0.123-0.028,0.241-0.073,0.356-0.136
				c0.56-0.309,0.757-0.922,0.438-1.37l-9.921-13.924c-0.319-0.448-1.03-0.562-1.594-0.253c-0.561,0.309-0.756,0.922-0.438,1.37
				L31.785,44.935z"/>
		</g>
	</g>
	
		<path display="inline" fill="none" stroke="#FFFFFF" stroke-width="4" stroke-linecap="round" stroke-linejoin="round" stroke-miterlimit="10" d="
		M26.662,89.003c-0.431-7.313,1.179-19.885,9.687-25.527"/>
	
		<path display="inline" fill="none" stroke="#FFFFFF" stroke-width="4" stroke-linecap="round" stroke-linejoin="round" stroke-miterlimit="10" d="
		M32.273,89.003c-0.555-9.445,3.012-15.963,8.197-20.22"/>
	
		<path display="inline" fill="none" stroke="#FFFFFF" stroke-width="4" stroke-linecap="round" stroke-linejoin="round" stroke-miterlimit="10" d="
		M39.015,91.109c-0.494-8.379,2.721-14.853,6.96-20.364"/>
	
		<path display="inline" fill="none" stroke="#FFFFFF" stroke-width="4" stroke-linecap="round" stroke-linejoin="round" stroke-miterlimit="10" d="
		M43.747,56.911c0,0,6.884-8.825,20.652-5.669C78.165,54.397,92.506,73.04,92.506,73.04"/>
	
		<path display="inline" fill="none" stroke="#FFFFFF" stroke-width="4" stroke-linecap="round" stroke-linejoin="round" stroke-miterlimit="10" d="
		M45.975,63.862c0,0,4.942-7.745,13.833-6.883c8.891,0.86,26.675,18.069,26.675,18.069"/>
	
		<path display="inline" fill="none" stroke="#FFFFFF" stroke-width="4" stroke-linecap="round" stroke-linejoin="round" stroke-miterlimit="10" d="
		M52.064,67.701c0,0,2.067-5.167,6.597-4.074c9.752,2.353,13.767,11.133,13.767,11.133"/>
	
		<path display="inline" fill="none" stroke="#FFFFFF" stroke-width="4" stroke-linecap="round" stroke-linejoin="round" stroke-miterlimit="10" d="
		M56.366,70.745c0,0,2.581,5.97,16.062,8.147c13.481,2.179,21.512-2.318,21.512-2.318"/>
	
		<path display="inline" fill="none" stroke="#FFFFFF" stroke-width="4" stroke-linecap="round" stroke-linejoin="round" stroke-miterlimit="10" d="
		M50.63,75.048c0,0,10.899,9.465,21.797,10.039c10.9,0.574,23.52-2.869,23.52-2.869"/>
	
		<path display="inline" fill="none" stroke="#FFFFFF" stroke-width="4" stroke-linecap="round" stroke-linejoin="round" stroke-miterlimit="10" d="
		M45.975,82.792c0,0,7.523,7.458,21.578,8.317c14.055,0.861,29.829-4.158,29.829-4.158"/>
</g>
<g id="spaghetti_copy" display="none">
	<path display="inline" fill="#F2F2F2" stroke="#C3202E" stroke-width="2" stroke-miterlimit="10" d="M123,111.6
		c0,6.571-5.373,12.4-12,12.4H15c-6.627,0-12-5.829-12-12.4V15.401C3,8.828,8.373,4,15,4h96c6.627,0,12,4.828,12,11.401V111.6z"/>
	
		<path display="inline" fill="none" stroke="#C3202E" stroke-width="4" stroke-linecap="round" stroke-linejoin="round" stroke-miterlimit="10" d="
		M23.529,76.574c0,0-14.627,3.544-14.627,8.995c0,5.449,16.922,13.768,53.635,13.768c36.712,0,53.635-7.889,53.635-13.768
		c0-5.881-13.628-8.995-13.628-8.995"/>
	
		<path display="inline" fill="none" stroke="#C3202E" stroke-width="4" stroke-linecap="round" stroke-linejoin="round" stroke-miterlimit="10" d="
		M113.304,95.513c0,5.341-16.017,12.505-50.767,12.505c-34.75,0-50.768-7.556-50.768-12.505"/>
	<g display="inline">
		<g>
			<path fill="#C3202E" d="M99.966,16.43L44.804,30.351c-0.611,0.144-1.138,0.436-1.539,0.814l-0.762,0.143
				c-1.817,0.336-4.113,0.17-5.131-0.375c-1.022-0.543-3.387-0.623-5.29-0.177l-3.33,0.779l-1.696-2.38
				c-0.322-0.448-1.033-0.561-1.595-0.253c-0.564,0.31-0.758,0.922-0.438,1.37l9.923,13.925c1.609,2.251,3.74,6.219,3.779,8.813
				c-1.164-1.679-2.748-2.724-4.359-3.114c-1.937-0.466-3.828,0.035-4.944,1.307c-1.277,1.455-1.288,3.308-0.034,4.72
				c1.327,1.498,4.374,2.727,8.579,1.281c0.213,0.996,0.304,2.122,0.229,3.375c-0.03,0.543,0.465,0.969,1.111,0.95
				c0.096-0.004,0.19-0.015,0.282-0.036c0.516-0.123,0.918-0.521,0.945-0.986c0.101-1.759-0.083-3.312-0.475-4.65
				c0.253-0.291,0.461-0.617,0.617-0.971c1.766-3.978-3.135-11.018-3.699-11.806l-2.209-3.1c1.416-0.588,2.762-1.468,3.291-2.208
				c0.67-0.939,2.757-2.062,4.657-2.507l1.258-0.295c0.575,0.219,1.248,0.283,1.941,0.121l55.605-12.026
				c1.586-0.373,2.399-2.682,2.094-3.99C103.306,17.765,101.553,16.058,99.966,16.43z M37.292,55.372
				c-3.02,1.052-5.116,0.273-5.991-0.716c-0.671-0.752-0.684-1.639-0.044-2.374c0.257-0.291,0.579-0.448,0.905-0.525
				c0.541-0.126,1.094-0.033,1.382,0.036c1.456,0.353,2.926,1.551,3.82,3.551C37.343,55.353,37.315,55.362,37.292,55.372z"/>
			<path fill="#C3202E" d="M23.876,44.177l1.595,2.237c0.255,0.356,0.759,0.502,1.239,0.39c0.122-0.028,0.24-0.074,0.355-0.137
				c0.561-0.308,0.758-0.921,0.438-1.37l-9.922-13.923c-0.32-0.448-1.031-0.562-1.595-0.254c-0.559,0.31-0.756,0.922-0.437,1.371
				l0.44,0.618l-3.836,0.898c-0.634,0.148-1.047,0.692-0.925,1.215c0.123,0.525,0.735,0.828,1.368,0.68l4.614-1.081l0.76,1.072
				l-6.433,1.506c-0.634,0.148-1.049,0.694-0.926,1.217c0.123,0.523,0.736,0.828,1.37,0.679l7.213-1.689l1.119,1.571l-7.541,1.767
				c-0.637,0.149-1.051,0.693-0.928,1.218c0.123,0.523,0.735,0.828,1.372,0.679l8.318-1.949l1.122,1.572l-8.65,2.025
				c-0.636,0.149-1.05,0.693-0.926,1.218c0.122,0.523,0.734,0.828,1.37,0.679L23.876,44.177L23.876,44.177z"/>
			<path fill="#C3202E" d="M28.63,45.674c0.255,0.356,0.758,0.502,1.238,0.39c0.123-0.028,0.242-0.074,0.354-0.136
				c0.563-0.309,0.759-0.923,0.441-1.371L20.74,30.634c-0.321-0.447-1.032-0.562-1.592-0.253c-0.564,0.31-0.758,0.922-0.44,1.371
				L28.63,45.674z"/>
			<path fill="#C3202E" d="M31.785,44.935c0.255,0.356,0.761,0.501,1.239,0.39c0.123-0.028,0.241-0.073,0.356-0.136
				c0.56-0.309,0.757-0.922,0.438-1.37l-9.921-13.924c-0.319-0.448-1.03-0.562-1.594-0.253c-0.561,0.309-0.756,0.922-0.438,1.37
				L31.785,44.935z"/>
		</g>
	</g>
	
		<path display="inline" fill="none" stroke="#C3202E" stroke-width="4" stroke-linecap="round" stroke-linejoin="round" stroke-miterlimit="10" d="
		M26.662,89.003c-0.431-7.313,1.179-19.885,9.687-25.527"/>
	
		<path display="inline" fill="none" stroke="#C3202E" stroke-width="4" stroke-linecap="round" stroke-linejoin="round" stroke-miterlimit="10" d="
		M32.273,89.003c-0.555-9.445,3.012-15.963,8.197-20.22"/>
	
		<path display="inline" fill="none" stroke="#C3202E" stroke-width="4" stroke-linecap="round" stroke-linejoin="round" stroke-miterlimit="10" d="
		M39.015,91.109c-0.494-8.379,2.721-14.853,6.96-20.364"/>
	
		<path display="inline" fill="none" stroke="#C3202E" stroke-width="4" stroke-linecap="round" stroke-linejoin="round" stroke-miterlimit="10" d="
		M43.747,56.911c0,0,6.884-8.825,20.652-5.669C78.165,54.397,92.506,73.04,92.506,73.04"/>
	
		<path display="inline" fill="none" stroke="#C3202E" stroke-width="4" stroke-linecap="round" stroke-linejoin="round" stroke-miterlimit="10" d="
		M45.975,63.862c0,0,4.942-7.745,13.833-6.883c8.891,0.86,26.675,18.069,26.675,18.069"/>
	
		<path display="inline" fill="none" stroke="#C3202E" stroke-width="4" stroke-linecap="round" stroke-linejoin="round" stroke-miterlimit="10" d="
		M52.064,67.701c0,0,2.067-5.167,6.597-4.074c9.752,2.353,13.767,11.133,13.767,11.133"/>
	
		<path display="inline" fill="none" stroke="#C3202E" stroke-width="4" stroke-linecap="round" stroke-linejoin="round" stroke-miterlimit="10" d="
		M56.366,70.745c0,0,2.581,5.97,16.062,8.147c13.481,2.179,21.512-2.318,21.512-2.318"/>
	
		<path display="inline" fill="none" stroke="#C3202E" stroke-width="4" stroke-linecap="round" stroke-linejoin="round" stroke-miterlimit="10" d="
		M50.63,75.048c0,0,10.899,9.465,21.797,10.039c10.9,0.574,23.52-2.869,23.52-2.869"/>
	
		<path display="inline" fill="none" stroke="#C3202E" stroke-width="4" stroke-linecap="round" stroke-linejoin="round" stroke-miterlimit="10" d="
		M45.975,82.792c0,0,7.523,7.458,21.578,8.317c14.055,0.861,29.829-4.158,29.829-4.158"/>
</g>
<g id="spaghetti_copy_2">
	<path fill="#F2F2F2" stroke="#C3202E" stroke-width="2" stroke-miterlimit="10" d="M123,111.6c0,6.571-5.373,12.4-12,12.4H15
		c-6.627,0-12-5.829-12-12.4V15.401C3,8.828,8.373,4,15,4h96c6.627,0,12,4.828,12,11.401V111.6z"/>
	<g>
		<g>
			<path fill="#C3202E" d="M123,64.574l-9.183-4.177c-1.553-0.734-3.175-1.011-4.679-0.889l-1.872-0.997
				c-4.455-2.381-9.078-6.658-10.322-9.557c-1.257-2.907-6.173-7.112-11.001-9.408l-8.444-4.022l0.44-7.979
				c0.075-1.507-1.249-2.962-2.978-3.265c-1.735-0.3-3.192,0.679-3.275,2.179l-2.569,46.689c-0.406,7.559-2.626,19.672-6.972,25.283
				c0.38-5.573-1.22-10.513-3.997-14.096c-3.343-4.303-8.237-6.461-12.792-5.647c-5.212,0.928-8.401,4.87-8.131,10.026
				c0.278,5.468,4.69,13.294,16.141,17.383c-1.246,2.49-2.972,5.051-5.273,7.604c-0.99,1.105-0.659,2.86,0.752,3.925
				c0.214,0.155,0.436,0.292,0.666,0.402c1.312,0.621,2.851,0.454,3.7-0.491c3.219-3.585,5.477-7.219,6.926-10.749
				c1.035-0.186,2.036-0.53,2.976-1.02c10.564-5.48,12.11-28.893,12.252-31.539l0.571-10.393c4.028,1.156,8.407,1.575,10.801,0.897
				c3.037-0.86,9.41,0.302,14.231,2.595l3.19,1.519c0.857,1.451,2.182,2.736,3.942,3.572l14.595,7.252L123,64.574z M55.054,101.033
				c-8.247-2.908-11.397-8.15-11.577-11.757c-0.15-2.755,1.337-4.666,3.959-5.145c1.045-0.185,2.001,0.033,2.828,0.419
				c1.372,0.656,2.394,1.799,2.892,2.441c2.507,3.24,3.604,8.306,2.1,14.105C55.195,101.08,55.12,101.052,55.054,101.033z"/>
			<path fill="#C3202E" d="M45.502,54.21l-0.41,7.504c-0.063,1.194,0.764,2.368,1.981,2.946c0.31,0.148,0.64,0.251,0.992,0.316
				c1.725,0.299,3.193-0.675,3.278-2.179l2.567-46.684c0.081-1.503-1.244-2.96-2.974-3.266c-1.724-0.292-3.19,0.68-3.275,2.183
				l-0.11,2.072l-9.73-4.629c-1.609-0.765-3.419-0.311-4.051,1.017c-0.634,1.332,0.156,3.024,1.763,3.786l11.701,5.568l-0.205,3.588
				l-16.314-7.762c-1.608-0.766-3.427-0.306-4.058,1.02c-0.632,1.327,0.159,3.023,1.769,3.789l18.294,8.704l-0.292,5.268
				L27.3,28.354c-1.617-0.769-3.427-0.313-4.062,1.016c-0.63,1.328,0.157,3.024,1.772,3.792l21.098,10.038l-0.286,5.271
				L23.884,38.031c-1.615-0.766-3.427-0.311-4.059,1.022c-0.632,1.328,0.154,3.022,1.77,3.789l23.907,11.371L45.502,54.21z"/>
			<path fill="#C3202E" d="M53.104,65.525c-0.064,1.198,0.764,2.366,1.979,2.947c0.309,0.148,0.644,0.252,0.989,0.313
				c1.73,0.305,3.198-0.676,3.281-2.177l2.567-46.687c0.077-1.502-1.247-2.959-2.97-3.261c-1.732-0.3-3.194,0.678-3.281,2.177
				L53.104,65.525z"/>
			<path fill="#C3202E" d="M61.104,69.33c-0.063,1.196,0.77,2.373,1.982,2.951c0.31,0.147,0.639,0.255,0.993,0.315
				c1.725,0.297,3.191-0.679,3.273-2.179l2.573-46.686c0.082-1.502-1.242-2.96-2.974-3.263c-1.726-0.295-3.191,0.679-3.275,2.179
				L61.104,69.33z"/>
		</g>
	</g>
	<path fill="#C3202E" d="M121.679,79.892"/>
</g>
</svg>
