<?xml version="1.0" encoding="utf-8"?>
<!-- Generator: Adobe Illustrator 16.0.0, SVG Export Plug-In . SVG Version: 6.00 Build 0)  -->
<!DOCTYPE svg PUBLIC "-//W3C//DTD SVG 1.1//EN" "http://www.w3.org/Graphics/SVG/1.1/DTD/svg11.dtd">
<svg version="1.1" xmlns="http://www.w3.org/2000/svg" xmlns:xlink="http://www.w3.org/1999/xlink" x="0px" y="0px" width="128px"
	 height="128px" viewBox="0 0 128 128" enable-background="new 0 0 128 128" xml:space="preserve">
<g id="function" display="none">
	<path display="inline" fill="#00A99D" stroke="#E6E6E6" stroke-width="2" stroke-miterlimit="10" d="M123,111.6
		c0,6.571-5.373,12.4-12,12.4H15c-6.627,0-12-5.829-12-12.4V15.401C3,8.828,8.373,4,15,4h96c6.627,0,12,4.828,12,11.401V111.6z"/>
	<text transform="matrix(1 0 0 1 28.8755 105.627)" display="inline" fill="#F2F2F2" font-family="'LilyUPCBold'" font-size="180">F</text>
</g>
<g id="template" display="none">
	<path display="inline" fill="#852B63" stroke="#E6E6E6" stroke-width="2" stroke-miterlimit="10" d="M123,111.6
		c0,6.571-5.373,12.4-12,12.4H15c-6.627,0-12-5.829-12-12.4V15.401C3,8.828,8.373,4,15,4h96c6.627,0,12,4.828,12,11.401V111.6z"/>
	
		<text transform="matrix(1 0 0 1 1.4995 94.1191)" display="inline" fill="#F2F2F2" font-family="'JasmineUPCBold'" font-size="110">&lt;</text>
	<text transform="matrix(1 0 0 1 81 94.1191)" display="inline" fill="#F2F2F2" font-family="'JasmineUPCBold'" font-size="110">&gt;</text>
	<text transform="matrix(1 0 0 1 29.8755 105.627)" display="inline" fill="#F2F2F2" font-family="'LilyUPC'" font-size="180">T</text>
</g>
<g id="template_copy">
	<path fill="#AA2D87" stroke="#E6E6E6" stroke-width="2" stroke-miterlimit="10" d="M123,111.6c0,6.571-5.373,12.4-12,12.4H15
		c-6.627,0-12-5.829-12-12.4V15.401C3,8.828,8.373,4,15,4h96c6.627,0,12,4.828,12,11.401V111.6z"/>
	<text transform="matrix(1 0 0 1 1.4995 94.1191)" fill="#F2F2F2" font-family="'JasmineUPCBold'" font-size="110">&lt;</text>
	<text transform="matrix(1 0 0 1 81 94.1191)" fill="#F2F2F2" font-family="'JasmineUPCBold'" font-size="110">&gt;</text>
	<text transform="matrix(1 0 0 1 41.8755 105.627)" fill="#F2F2F2" font-family="'LilyUPC'" font-size="180">t</text>
</g>
<g id="class" display="none">
	<path display="inline" fill="#FAA700" stroke="#E6E6E6" stroke-width="2" stroke-miterlimit="10" d="M123,111.6
		c0,6.571-5.373,12.4-12,12.4H15c-6.627,0-12-5.829-12-12.4V15.401C3,8.828,8.373,4,15,4h96c6.627,0,12,4.828,12,11.401V111.6z"/>
	<text transform="matrix(1 0 0 1 23.9077 105.625)" display="inline" fill="#F2F2F2" font-family="'LilyUPCBold'" font-size="180">C</text>
</g>
<g id="namespace" display="none">
	<path display="inline" fill="#33ADDA" stroke="#E6E6E6" stroke-width="2" stroke-miterlimit="10" d="M123,111.6
		c0,6.571-5.373,12.4-12,12.4H15c-6.627,0-12-5.829-12-12.4V15.401C3,8.828,8.373,4,15,4h96c6.627,0,12,4.828,12,11.401V111.6z"/>
	<text transform="matrix(1 0 0 1 20.9434 105.625)" display="inline" fill="#F2F2F2" font-family="'LilyUPCBold'" font-size="180">N</text>
</g>
<g id="variable" display="none">
	<path display="inline" fill="#9D7D2D" stroke="#E6E6E6" stroke-width="2" stroke-miterlimit="10" d="M123,111.6
		c0,6.571-5.373,12.4-12,12.4H15c-6.627,0-12-5.829-12-12.4V15.401C3,8.828,8.373,4,15,4h96c6.627,0,12,4.828,12,11.401V111.6z"/>
	<text transform="matrix(1 0 0 1 23.9434 105.625)" display="inline" fill="#F2F2F2" font-family="'LilyUPCBold'" font-size="180">V</text>
</g>
<g id="spaghetti" display="none">
	<path display="inline" fill="#C3202E" stroke="#E6E6E6" stroke-width="2" stroke-miterlimit="10" d="M123,111.6
		c0,6.571-5.373,12.4-12,12.4H15c-6.627,0-12-5.829-12-12.4V15.401C3,8.828,8.373,4,15,4h96c6.627,0,12,4.828,12,11.401V111.6z"/>
	
		<path display="inline" fill="none" stroke="#FFFFFF" stroke-width="4" stroke-linecap="round" stroke-linejoin="round" stroke-miterlimit="10" d="
		M23.529,76.574c0,0-14.627,3.544-14.627,8.995c0,5.449,16.922,13.768,53.635,13.768c36.712,0,53.635-7.889,53.635-13.768
		c0-5.881-13.628-8.995-13.628-8.995"/>
	
		<path display="inline" fill="none" stroke="#FFFFFF" stroke-width="4" stroke-linecap="round" stroke-linejoin="round" stroke-miterlimit="10" d="
		M113.304,95.513c0,5.341-16.017,12.505-50.767,12.505c-34.75,0-50.768-7.556-50.768-12.505"/>
	<g display="inline">
		<g>
			<path fill="#FFFFFF" d="M99.966,16.43L44.804,30.351c-0.611,0.144-1.138,0.436-1.539,0.814l-0.762,0.143
				c-1.817,0.336-4.113,0.17-5.131-0.375c-1.022-0.543-3.387-0.623-5.29-0.177l-3.33,0.779l-1.696-2.38
				c-0.322-0.448-1.033-0.561-1.595-0.253c-0.564,0.31-0.758,0.922-0.438,1.37l9.923,13.925c1.609,2.251,3.74,6.219,3.779,8.813
				c-1.164-1.679-2.748-2.724-4.359-3.114c-1.937-0.466-3.828,0.035-4.944,1.307c-1.277,1.455-1.288,3.308-0.034,4.72
				c1.327,1.498,4.374,2.727,8.579,1.281c0.213,0.996,0.304,2.122,0.229,3.375c-0.03,0.543,0.465,0.969,1.111,0.95
				c0.096-0.004,0.19-0.015,0.282-0.036c0.516-0.123,0.918-0.521,0.945-0.986c0.101-1.759-0.083-3.312-0.475-4.65
				c0.253-0.291,0.461-0.617,0.617-0.971c1.766-3.978-3.135-11.018-3.699-11.806l-2.209-3.1c1.416-0.588,2.762-1.468,3.291-2.208
				c0.67-0.939,2.757-2.062,4.657-2.507l1.258-0.295c0.575,0.219,1.248,0.283,1.941,0.121l55.605-12.026
				c1.586-0.373,2.399-2.682,2.094-3.99C103.306,17.765,101.553,16.058,99.966,16.43z M37.292,55.372
				c-3.02,1.052-5.116,0.273-5.991-0.716c-0.671-0.752-0.684-1.639-0.044-2.374c0.257-0.291,0.579-0.448,0.905-0.525
				c0.541-0.126,1.094-0.033,1.382,0.036c1.456,0.353,2.926,1.551,3.82,3.551C37.343,55.353,37.315,55.362,37.292,55.372z"/>
			<path fill="#FFFFFF" d="M23.876,44.177l1.595,2.237c0.255,0.356,0.759,0.502,1.239,0.39c0.122-0.028,0.24-0.074,0.355-0.137
				c0.561-0.308,0.758-0.921,0.438-1.37l-9.922-13.923c-0.32-0.448-1.031-0.562-1.595-0.254c-0.559,0.31-0.756,0.922-0.437,1.371
				l0.44,0.618l-3.836,0.898c-0.634,0.148-1.047,0.692-0.925,1.215c0.123,0.525,0.735,0.828,1.368,0.68l4.614-1.081l0.76,1.072
				l-6.433,1.506c-0.634,0.148-1.049,0.694-0.926,1.217c0.123,0.523,0.736,0.828,1.37,0.679l7.213-1.689l1.119,1.571l-7.541,1.767
				c-0.637,0.149-1.051,0.693-0.928,1.218c0.123,0.523,0.735,0.828,1.372,0.679l8.318-1.949l1.122,1.572l-8.65,2.025
				c-0.636,0.149-1.05,0.693-0.926,1.218c0.122,0.523,0.734,0.828,1.37,0.679L23.876,44.177L23.876,44.177z"/>
			<path fill="#FFFFFF" d="M28.63,45.674c0.255,0.356,0.758,0.502,1.238,0.39c0.123-0.028,0.242-0.074,0.354-0.136
				c0.563-0.309,0.759-0.923,0.441-1.371L20.74,30.634c-0.321-0.447-1.032-0.562-1.592-0.253c-0.564,0.31-0.758,0.922-0.44,1.371
				L28.63,45.674z"/>
			<path fill="#FFFFFF" d="M31.785,44.935c0.255,0.356,0.761,0.501,1.239,0.39c0.123-0.028,0.241-0.073,0.356-0.136
				c0.56-0.309,0.757-0.922,0.438-1.37l-9.921-13.924c-0.319-0.448-1.03-0.562-1.594-0.253c-0.561,0.309-0.756,0.922-0.438,1.37
				L31.785,44.935z"/>
		</g>
	</g>
	
		<path display="inline" fill="none" stroke="#FFFFFF" stroke-width="4" stroke-linecap="round" stroke-linejoin="round" stroke-miterlimit="10" d="
		M26.662,89.003c-0.431-7.313,1.179-19.885,9.687-25.527"/>
	
		<path display="inline" fill="none" stroke="#FFFFFF" stroke-width="4" stroke-linecap="round" stroke-linejoin="round" stroke-miterlimit="10" d="
		M32.273,89.003c-0.555-9.445,3.012-15.963,8.197-20.22"/>
	
		<path display="inline" fill="none" stroke="#FFFFFF" stroke-width="4" stroke-linecap="round" stroke-linejoin="round" stroke-miterlimit="10" d="
		M39.015,91.109c-0.494-8.379,2.721-14.853,6.96-20.364"/>
	
		<path display="inline" fill="none" stroke="#FFFFFF" stroke-width="4" stroke-linecap="round" stroke-linejoin="round" stroke-miterlimit="10" d="
		M43.747,56.911c0,0,6.884-8.825,20.652-5.669C78.165,54.397,92.506,73.04,92.506,73.04"/>
	
		<path display="inline" fill="none" stroke="#FFFFFF" stroke-width="4" stroke-linecap="round" stroke-linejoin="round" stroke-miterlimit="10" d="
		M45.975,63.862c0,0,4.942-7.745,13.833-6.883c8.891,0.86,26.675,18.069,26.675,18.069"/>
	
		<path display="inline" fill="none" stroke="#FFFFFF" stroke-width="4" stroke-linecap="round" stroke-linejoin="round" stroke-miterlimit="10" d="
		M52.064,67.701c0,0,2.067-5.167,6.597-4.074c9.752,2.353,13.767,11.133,13.767,11.133"/>
	
		<path display="inline" fill="none" stroke="#FFFFFF" stroke-width="4" stroke-linecap="round" stroke-linejoin="round" stroke-miterlimit="10" d="
		M56.366,70.745c0,0,2.581,5.97,16.062,8.147c13.481,2.179,21.512-2.318,21.512-2.318"/>
	
		<path display="inline" fill="none" stroke="#FFFFFF" stroke-width="4" stroke-linecap="round" stroke-linejoin="round" stroke-miterlimit="10" d="
		M50.63,75.048c0,0,10.899,9.465,21.797,10.039c10.9,0.574,23.52-2.869,23.52-2.869"/>
	
		<path display="inline" fill="none" stroke="#FFFFFF" stroke-width="4" stroke-linecap="round" stroke-linejoin="round" stroke-miterlimit="10" d="
		M45.975,82.792c0,0,7.523,7.458,21.578,8.317c14.055,0.861,29.829-4.158,29.829-4.158"/>
</g>
</svg>
